<svg fill="{{COLOR}}" xmlns="http://www.w3.org/2000/svg" xmlns:xlink="http://www.w3.org/1999/xlink" version="1.1" x="0px" y="0px" viewBox="0 0 100 100" enable-background="new 0 0 100 100" xml:space="preserve"><g><path fill="{{COLOR}}" d="M32.206,29.736l-9.636,6.73c0.25,0.117,0.497,0.239,0.74,0.363c0.243,0.123,0.483,0.253,0.721,0.382   c0.234,0.13,0.467,0.264,0.694,0.4c0.228,0.138,0.453,0.275,0.672,0.417l9.468-6.867c-0.234-0.108-0.465-0.221-0.694-0.333   c-0.229-0.114-0.455-0.229-0.679-0.347c-0.222-0.122-0.439-0.242-0.654-0.365C32.624,29.991,32.413,29.866,32.206,29.736"/><path fill="{{COLOR}}" d="M49.259,49.557L38.953,60.591c0.284,0.132,0.564,0.266,0.841,0.407c0.277,0.139,0.55,0.282,0.822,0.43   c0.27,0.151,0.536,0.303,0.798,0.459c0.263,0.154,0.522,0.315,0.776,0.481L52.3,51.055c-0.263-0.11-0.525-0.226-0.785-0.344   c-0.259-0.116-0.515-0.237-0.769-0.361c-0.255-0.127-0.506-0.256-0.754-0.388C49.743,49.83,49.499,49.696,49.259,49.557    M65.215,32.472l-6.082,6.513c0.229,0.113,0.454,0.229,0.679,0.346c0.226,0.121,0.449,0.24,0.666,0.364   c0.221,0.124,0.436,0.25,0.65,0.378c0.212,0.129,0.422,0.261,0.63,0.396l5.981-6.694c-0.217-0.099-0.436-0.201-0.651-0.305   c-0.213-0.104-0.428-0.209-0.64-0.317c-0.21-0.11-0.418-0.221-0.624-0.334S65.414,32.59,65.215,32.472"/><path fill="{{COLOR}}" d="M82.891,50.42l-5.877,10.298c0.257,0.117,0.517,0.236,0.773,0.361c0.256,0.123,0.512,0.251,0.766,0.382   c0.252,0.134,0.504,0.269,0.751,0.407c0.248,0.14,0.495,0.285,0.74,0.431l5.629-10.451c-0.236-0.106-0.475-0.215-0.711-0.328   c-0.236-0.112-0.471-0.229-0.701-0.348c-0.234-0.118-0.466-0.239-0.693-0.366C83.341,50.679,83.115,50.553,82.891,50.42"/><path fill="{{COLOR}}" d="M24.22,51.681c-0.25,0.04-0.509,0.072-0.772,0.102c-0.265,0.029-0.532,0.051-0.809,0.069   c-0.273,0.018-0.556,0.03-0.841,0.036c-0.287,0.007-0.58,0.007-0.876,0.003l4.153,6.559c0.261-0.048,0.527-0.087,0.797-0.126   c0.27-0.033,0.548-0.063,0.827-0.086c0.279-0.024,0.562-0.042,0.852-0.054c0.289-0.01,0.58-0.016,0.88-0.015L24.22,51.681"/><path fill="{{COLOR}}" d="M62.893,52.81c-0.18,0.026-0.365,0.049-0.555,0.066c-0.19,0.018-0.383,0.034-0.582,0.046   c-0.199,0.008-0.402,0.016-0.61,0.018c-0.208,0.004-0.419,0.002-0.636-0.002c-0.028-0.003-0.057-0.001-0.087-0.005   c-0.024,0-0.057-0.002-0.085-0.002c-0.027-0.001-0.058-0.002-0.086-0.002c-0.028-0.001-0.055-0.004-0.085-0.006l5.044,6.024   c0.197-0.046,0.4-0.089,0.611-0.126c0.207-0.037,0.422-0.068,0.642-0.094c0.221-0.026,0.444-0.046,0.676-0.062   c0.228-0.017,0.464-0.025,0.701-0.031L62.893,52.81 M46.429,33.427c-0.19,0.022-0.384,0.042-0.583,0.056   c-0.201,0.016-0.406,0.024-0.617,0.032c-0.209,0.005-0.427,0.007-0.647,0.005c-0.222-0.003-0.446-0.01-0.677-0.021l2.612,3.122   c0.185-0.037,0.375-0.067,0.57-0.094c0.195-0.027,0.393-0.048,0.596-0.067c0.203-0.018,0.411-0.03,0.626-0.042   c0.211-0.011,0.428-0.014,0.65-0.014L46.429,33.427"/><path fill="{{COLOR}}" d="M77.92,35.733c-0.148,0.025-0.302,0.047-0.462,0.064c-0.159,0.02-0.325,0.035-0.492,0.046   c-0.169,0.009-0.346,0.018-0.525,0.02c-0.18,0.003-0.366,0.001-0.557-0.004l2.868,2.83c0.151-0.028,0.307-0.053,0.467-0.077   c0.162-0.02,0.328-0.036,0.497-0.05c0.169-0.011,0.346-0.019,0.525-0.023c0.177-0.005,0.361-0.005,0.552-0.001L77.92,35.733"/><path fill="{{COLOR}}" d="M59.73,27.462l-10.17-0.944c0.055,0.066,0.109,0.131,0.16,0.198c0.053,0.065,0.104,0.132,0.154,0.197   c0.049,0.067,0.097,0.134,0.146,0.199c0.046,0.068,0.094,0.137,0.136,0.203c0.046,0.065,0.09,0.132,0.129,0.2   c0.041,0.066,0.081,0.131,0.12,0.198c0.037,0.065,0.074,0.131,0.107,0.196c0.035,0.064,0.067,0.129,0.099,0.194l10.23,0.913   c-0.055-0.064-0.113-0.131-0.168-0.197c-0.055-0.064-0.11-0.13-0.16-0.196c-0.055-0.066-0.104-0.13-0.153-0.195   c-0.051-0.063-0.097-0.131-0.146-0.198c-0.046-0.065-0.092-0.131-0.134-0.194c-0.046-0.068-0.088-0.132-0.129-0.196   c-0.038-0.063-0.077-0.127-0.114-0.19S59.764,27.526,59.73,27.462"/><path fill="{{COLOR}}" d="M42.397,42.673l-12.644-0.645c0.063,0.093,0.127,0.185,0.187,0.278c0.06,0.093,0.12,0.186,0.174,0.279   c0.057,0.096,0.111,0.188,0.164,0.283s0.103,0.189,0.152,0.284c0.039,0.08,0.077,0.157,0.113,0.236   c0.039,0.078,0.074,0.154,0.105,0.232c0.034,0.079,0.065,0.157,0.094,0.233c0.03,0.078,0.058,0.153,0.086,0.229l12.672,0.583   c-0.053-0.074-0.107-0.152-0.161-0.227c-0.049-0.075-0.1-0.151-0.149-0.229c-0.049-0.076-0.097-0.151-0.143-0.229   c-0.046-0.075-0.092-0.151-0.134-0.229c-0.055-0.09-0.104-0.184-0.152-0.275c-0.049-0.092-0.093-0.182-0.137-0.271   c-0.042-0.092-0.081-0.181-0.12-0.27C42.466,42.851,42.431,42.759,42.397,42.673 M76.317,44.397l-10.563-0.535   c0.074,0.081,0.145,0.168,0.213,0.253c0.069,0.085,0.142,0.171,0.207,0.257c0.064,0.085,0.132,0.173,0.193,0.26   c0.063,0.085,0.125,0.175,0.188,0.263c0.049,0.071,0.097,0.145,0.145,0.216c0.045,0.073,0.093,0.144,0.136,0.214   c0.044,0.072,0.086,0.144,0.128,0.213c0.039,0.07,0.08,0.143,0.118,0.211l10.567,0.488c-0.062-0.072-0.12-0.137-0.179-0.209   c-0.06-0.07-0.118-0.14-0.174-0.212c-0.057-0.069-0.113-0.139-0.166-0.209c-0.055-0.07-0.107-0.139-0.16-0.21   c-0.063-0.084-0.124-0.171-0.184-0.255c-0.059-0.086-0.114-0.167-0.168-0.252c-0.055-0.083-0.109-0.166-0.158-0.247   C76.409,44.561,76.363,44.479,76.317,44.397"/><path fill="{{COLOR}}" d="M61.139,67.393l-13.44,0.154c0.072,0.104,0.143,0.21,0.21,0.315c0.069,0.106,0.136,0.214,0.201,0.319   c0.067,0.109,0.128,0.216,0.188,0.325c0.063,0.108,0.124,0.219,0.182,0.327c0.058,0.109,0.114,0.22,0.167,0.329   c0.055,0.109,0.107,0.22,0.155,0.33c0.051,0.107,0.097,0.218,0.143,0.326c0.044,0.107,0.088,0.217,0.128,0.324l13.55-0.245   c-0.079-0.102-0.153-0.208-0.226-0.312c-0.074-0.105-0.146-0.209-0.217-0.315c-0.07-0.105-0.14-0.21-0.205-0.316   c-0.064-0.105-0.13-0.212-0.191-0.317c-0.063-0.105-0.126-0.211-0.184-0.316c-0.059-0.104-0.111-0.21-0.166-0.312   c-0.053-0.105-0.105-0.208-0.155-0.312C61.23,67.595,61.183,67.492,61.139,67.393"/><path fill="{{COLOR}}" d="M37.858,78.168c-1.678,0.063-3.411-0.145-5.102-0.574c-1.696-0.434-3.341-1.088-4.841-1.91   c-1.495-0.822-2.836-1.812-3.935-2.911c-1.087-1.094-1.929-2.288-2.438-3.539c-0.5-1.237-0.629-2.405-0.436-3.456   c0.192-1.041,0.696-1.968,1.461-2.736c0.758-0.76,1.769-1.366,2.992-1.78c1.206-0.407,2.622-0.629,4.203-0.621   c1.567,0.011,3.161,0.243,4.698,0.659c1.536,0.412,3.025,1.007,4.393,1.74c1.37,0.737,2.626,1.615,3.688,2.597   c1.066,0.988,1.941,2.084,2.54,3.247c0.605,1.18,0.873,2.32,0.839,3.378c-0.035,1.07-0.384,2.056-1.015,2.902   c-0.639,0.859-1.566,1.574-2.743,2.094C40.97,77.782,39.522,78.104,37.858,78.168 M28.622,58.169c-0.014,0-0.032,0-0.047-0.001   c-0.016,0.001-0.034,0-0.049,0.001c-0.016,0-0.032-0.001-0.048-0.001c-0.016,0-0.032,0-0.047,0.001   c-0.3-0.001-0.591,0.005-0.88,0.015c-0.289,0.012-0.573,0.029-0.852,0.054c-0.278,0.022-0.557,0.053-0.827,0.086   c-0.27,0.039-0.536,0.078-0.797,0.126c-1.509,0.272-2.851,0.736-3.982,1.358c-1.146,0.635-2.08,1.433-2.764,2.366   c-0.691,0.945-1.125,2.03-1.257,3.221c-0.13,1.204,0.049,2.516,0.583,3.895c0.644,1.656,1.736,3.247,3.166,4.7   c1.442,1.468,3.217,2.784,5.204,3.881c1.99,1.097,4.18,1.969,6.437,2.537c2.248,0.566,4.546,0.83,6.768,0.729   c2.038-0.092,3.822-0.482,5.31-1.106c1.471-0.62,2.65-1.465,3.505-2.479c0.839-0.998,1.364-2.156,1.542-3.42   c0.174-1.243,0.012-2.59-0.513-3.988c-0.041-0.107-0.084-0.217-0.128-0.324c-0.046-0.108-0.092-0.219-0.143-0.326   c-0.047-0.11-0.1-0.221-0.155-0.33c-0.053-0.109-0.109-0.22-0.167-0.329c-0.058-0.108-0.118-0.219-0.182-0.327   c-0.06-0.109-0.122-0.216-0.188-0.325c-0.065-0.105-0.132-0.213-0.201-0.319c-0.067-0.105-0.138-0.211-0.21-0.315   c-0.336-0.493-0.71-0.974-1.116-1.438c-0.405-0.465-0.839-0.914-1.305-1.347c-0.463-0.435-0.957-0.851-1.474-1.249   c-0.515-0.399-1.056-0.783-1.615-1.146c-0.254-0.166-0.513-0.327-0.776-0.481c-0.263-0.156-0.529-0.308-0.798-0.459   c-0.271-0.147-0.545-0.291-0.822-0.43c-0.276-0.142-0.557-0.275-0.841-0.407c-0.798-0.368-1.624-0.703-2.464-0.993   c-0.843-0.293-1.701-0.544-2.568-0.752c-0.871-0.21-1.751-0.371-2.636-0.487C30.399,58.245,29.509,58.181,28.622,58.169"/><path fill="{{COLOR}}" d="M79.97,76.589c-1.349,0.051-2.791-0.138-4.247-0.526c-1.459-0.389-2.924-0.975-4.307-1.709   c-1.38-0.736-2.672-1.616-3.788-2.601c-1.11-0.974-2.045-2.045-2.724-3.162c-0.666-1.105-1.021-2.151-1.088-3.094   c-0.067-0.935,0.143-1.769,0.6-2.46c0.449-0.684,1.143-1.231,2.047-1.604c0.894-0.372,1.995-0.571,3.286-0.564   c1.276,0.007,2.623,0.219,3.966,0.595c1.34,0.37,2.68,0.907,3.949,1.573c1.272,0.664,2.479,1.457,3.547,2.346   c1.075,0.89,2.013,1.878,2.739,2.927c0.735,1.06,1.188,2.084,1.372,3.031c0.187,0.957,0.102,1.838-0.24,2.594   c-0.348,0.765-0.953,1.4-1.807,1.859C82.415,76.259,81.305,76.538,79.97,76.589 M68.291,58.634c-0.037,0-0.074,0-0.111,0   c-0.039,0-0.076,0-0.113,0.001c-0.037-0.003-0.073-0.001-0.112-0.001c-0.037,0-0.072,0.001-0.113,0.001   c-0.237,0.006-0.474,0.015-0.701,0.031c-0.231,0.016-0.455,0.035-0.676,0.062c-0.22,0.025-0.435,0.057-0.642,0.094   c-0.211,0.037-0.414,0.08-0.611,0.126c-1.024,0.245-1.902,0.628-2.616,1.128c-0.721,0.502-1.274,1.125-1.646,1.849   c-0.376,0.731-0.559,1.566-0.538,2.479c0.023,0.924,0.26,1.927,0.729,2.99c0.044,0.1,0.092,0.202,0.141,0.305   c0.05,0.104,0.103,0.206,0.155,0.312c0.055,0.103,0.107,0.208,0.166,0.312c0.058,0.105,0.12,0.211,0.184,0.316   c0.062,0.105,0.127,0.212,0.191,0.317c0.065,0.106,0.135,0.211,0.205,0.316c0.07,0.106,0.143,0.21,0.217,0.315   c0.072,0.104,0.146,0.21,0.226,0.312c0.99,1.34,2.253,2.609,3.704,3.762c1.456,1.156,3.094,2.187,4.823,3.041   c1.73,0.852,3.541,1.521,5.334,1.961c1.789,0.438,3.553,0.64,5.201,0.565c1.757-0.079,3.21-0.465,4.329-1.096   c1.104-0.619,1.883-1.471,2.312-2.487c0.422-1,0.51-2.163,0.242-3.421c-0.265-1.239-0.873-2.579-1.846-3.954   c-0.407-0.578-0.862-1.14-1.357-1.684c-0.492-0.539-1.026-1.061-1.594-1.563c-0.564-0.501-1.162-0.979-1.788-1.435   c-0.624-0.453-1.272-0.884-1.94-1.288c-0.245-0.146-0.492-0.291-0.74-0.431c-0.247-0.139-0.499-0.273-0.751-0.407   c-0.254-0.131-0.51-0.259-0.766-0.382c-0.257-0.125-0.517-0.244-0.773-0.361c-0.718-0.316-1.442-0.605-2.174-0.858   c-0.729-0.251-1.463-0.469-2.196-0.647c-0.739-0.181-1.473-0.318-2.197-0.419C69.719,58.699,68.998,58.642,68.291,58.634"/><path fill="{{COLOR}}" d="M19.727,49.588c-1.555-0.049-3.134-0.304-4.656-0.723c-1.525-0.419-2.984-1.002-4.296-1.708   C9.465,46.456,8.31,45.64,7.39,44.75c-0.917-0.882-1.596-1.831-1.966-2.803c-0.365-0.96-0.391-1.85-0.13-2.638   c0.259-0.777,0.799-1.455,1.569-1.998c0.76-0.537,1.747-0.946,2.913-1.194c1.154-0.246,2.485-0.335,3.954-0.242   c1.456,0.093,2.916,0.358,4.312,0.758c1.393,0.4,2.729,0.936,3.938,1.573c1.213,0.636,2.303,1.375,3.203,2.182   c0.905,0.811,1.62,1.694,2.068,2.613c0.456,0.927,0.601,1.806,0.47,2.604c-0.13,0.807-0.546,1.528-1.209,2.133   c-0.672,0.609-1.594,1.094-2.731,1.417C22.632,49.481,21.268,49.637,19.727,49.588 M12.876,33.922   c-1.905-0.13-3.642-0.021-5.154,0.285c-1.53,0.314-2.833,0.832-3.847,1.521c-1.028,0.7-1.759,1.574-2.125,2.585   c-0.37,1.029-0.363,2.198,0.097,3.461c0.463,1.283,1.345,2.541,2.545,3.71c1.208,1.182,2.734,2.269,4.469,3.202   c1.738,0.936,3.675,1.71,5.699,2.263c2.02,0.554,4.114,0.884,6.168,0.937c0.016,0.002,0.032,0,0.047,0.002   c0.018,0,0.032,0.001,0.049,0c0.016,0,0.03,0.001,0.048,0.001c0.016,0,0.032,0.002,0.047,0.002   c0.296,0.004,0.589,0.004,0.876-0.003c0.286-0.006,0.568-0.019,0.841-0.036c0.277-0.019,0.544-0.04,0.809-0.069   c0.263-0.029,0.521-0.062,0.772-0.102c1.333-0.208,2.5-0.561,3.477-1.031c0.968-0.466,1.749-1.05,2.322-1.724   c0.566-0.664,0.929-1.419,1.07-2.24c0.138-0.809,0.057-1.685-0.259-2.603c-0.028-0.077-0.056-0.152-0.086-0.229   c-0.028-0.077-0.06-0.155-0.094-0.233c-0.032-0.078-0.067-0.154-0.105-0.232c-0.036-0.079-0.074-0.156-0.113-0.236   c-0.049-0.095-0.099-0.189-0.152-0.284s-0.107-0.187-0.164-0.283c-0.055-0.093-0.114-0.186-0.174-0.279   c-0.06-0.093-0.124-0.185-0.187-0.278c-0.259-0.367-0.546-0.727-0.86-1.081c-0.317-0.351-0.659-0.696-1.026-1.031   c-0.365-0.334-0.758-0.661-1.169-0.977c-0.414-0.313-0.848-0.619-1.301-0.912c-0.219-0.142-0.444-0.279-0.672-0.417   c-0.227-0.136-0.46-0.27-0.694-0.4c-0.238-0.129-0.478-0.259-0.721-0.382c-0.243-0.125-0.49-0.246-0.74-0.363   c-0.73-0.343-1.49-0.659-2.269-0.946c-0.779-0.284-1.581-0.537-2.397-0.754c-0.818-0.219-1.648-0.4-2.487-0.541   C14.576,34.08,13.726,33.979,12.876,33.922"/><path fill="{{COLOR}}" d="M59.19,50.842c-1.276-0.038-2.617-0.268-3.948-0.646c-1.333-0.38-2.65-0.907-3.872-1.546   c-1.218-0.637-2.341-1.38-3.288-2.189c-0.943-0.807-1.71-1.675-2.228-2.565c-0.517-0.881-0.74-1.699-0.707-2.425   c0.035-0.718,0.321-1.344,0.825-1.85c0.497-0.501,1.211-0.883,2.105-1.121c0.888-0.234,1.957-0.326,3.176-0.248   c1.213,0.075,2.47,0.313,3.704,0.675c1.229,0.365,2.445,0.853,3.577,1.434c1.135,0.583,2.192,1.263,3.107,2.004   c0.919,0.747,1.699,1.557,2.27,2.403c0.572,0.852,0.883,1.663,0.948,2.396c0.066,0.742-0.116,1.409-0.527,1.962   c-0.418,0.56-1.066,1.008-1.925,1.306C61.539,50.734,60.46,50.883,59.19,50.842 M50.114,36.445   c-0.097-0.008-0.196-0.013-0.293-0.019c-0.099-0.003-0.196-0.011-0.292-0.012c-0.095-0.005-0.192-0.005-0.288-0.007   c-0.095-0.003-0.188-0.003-0.282-0.003c-0.222,0-0.439,0.003-0.65,0.014c-0.215,0.011-0.423,0.024-0.626,0.042   c-0.203,0.019-0.4,0.04-0.596,0.067c-0.194,0.027-0.385,0.057-0.57,0.094c-0.879,0.173-1.648,0.437-2.286,0.788   c-0.646,0.356-1.16,0.798-1.527,1.313c-0.372,0.521-0.596,1.117-0.654,1.779c-0.06,0.665,0.053,1.391,0.347,2.172   c0.033,0.086,0.069,0.178,0.107,0.264c0.039,0.089,0.078,0.178,0.12,0.27c0.044,0.09,0.088,0.18,0.137,0.271   c0.048,0.091,0.097,0.185,0.152,0.275c0.042,0.078,0.088,0.154,0.134,0.229c0.046,0.078,0.094,0.153,0.143,0.229   c0.049,0.078,0.1,0.154,0.149,0.229c0.053,0.075,0.108,0.152,0.161,0.227c0.324,0.448,0.693,0.89,1.104,1.323   c0.413,0.436,0.864,0.858,1.351,1.271c0.488,0.413,1.012,0.812,1.563,1.197c0.554,0.384,1.135,0.752,1.74,1.1   c0.24,0.139,0.484,0.273,0.733,0.405c0.249,0.132,0.499,0.261,0.754,0.388c0.254,0.124,0.51,0.245,0.769,0.361   c0.26,0.118,0.522,0.233,0.785,0.344c0.642,0.269,1.296,0.51,1.956,0.727c0.658,0.217,1.322,0.405,1.987,0.566   c0.665,0.16,1.325,0.289,1.983,0.384c0.655,0.099,1.305,0.162,1.94,0.191c0.03,0.002,0.057,0.005,0.085,0.006   c0.028,0,0.059,0.001,0.086,0.002c0.028,0,0.061,0.002,0.085,0.002c0.03,0.004,0.059,0.002,0.087,0.005   c0.217,0.004,0.428,0.006,0.636,0.002c0.208-0.002,0.411-0.01,0.61-0.018c0.199-0.012,0.392-0.028,0.582-0.046   c0.189-0.018,0.375-0.04,0.555-0.066c1.121-0.162,2.068-0.471,2.828-0.896c0.749-0.422,1.312-0.96,1.673-1.588   c0.354-0.621,0.515-1.333,0.465-2.105c-0.049-0.769-0.305-1.598-0.777-2.47c-0.038-0.069-0.079-0.141-0.118-0.211   c-0.042-0.07-0.084-0.141-0.128-0.213c-0.043-0.07-0.091-0.142-0.136-0.214c-0.048-0.071-0.096-0.145-0.145-0.216   c-0.062-0.088-0.124-0.177-0.188-0.263c-0.062-0.087-0.129-0.174-0.193-0.26c-0.065-0.085-0.138-0.172-0.207-0.257   c-0.068-0.085-0.139-0.172-0.213-0.253c-0.265-0.311-0.55-0.614-0.854-0.911c-0.303-0.297-0.622-0.588-0.959-0.874   c-0.335-0.282-0.686-0.56-1.051-0.829c-0.364-0.266-0.743-0.529-1.133-0.781c-0.208-0.135-0.418-0.267-0.63-0.396   c-0.215-0.128-0.43-0.254-0.65-0.378c-0.217-0.125-0.44-0.244-0.666-0.364c-0.225-0.117-0.45-0.233-0.679-0.346   c-0.709-0.348-1.438-0.668-2.181-0.956c-0.742-0.287-1.499-0.542-2.261-0.758c-0.761-0.218-1.53-0.398-2.293-0.539   C51.633,36.594,50.868,36.496,50.114,36.445"/><path fill="{{COLOR}}" d="M91.913,51.882c-1.066-0.031-2.227-0.239-3.405-0.583c-1.182-0.347-2.379-0.831-3.522-1.414   c-1.141-0.583-2.22-1.265-3.175-2.009c-0.945-0.74-1.758-1.538-2.375-2.36c-0.613-0.814-0.968-1.571-1.095-2.244   c-0.122-0.667-0.016-1.25,0.295-1.724c0.308-0.467,0.819-0.828,1.511-1.052c0.688-0.225,1.558-0.316,2.591-0.251   c1.024,0.064,2.121,0.278,3.223,0.611c1.104,0.333,2.216,0.782,3.281,1.319c1.066,0.538,2.089,1.164,3.002,1.85   c0.918,0.69,1.731,1.441,2.378,2.224c0.65,0.789,1.072,1.539,1.272,2.218c0.203,0.685,0.184,1.303-0.049,1.816   c-0.236,0.521-0.686,0.935-1.342,1.213C93.842,51.775,92.975,51.915,91.913,51.882 M81.414,38.567   c-0.055-0.006-0.108-0.009-0.159-0.011c-0.053-0.003-0.105-0.006-0.158-0.008c-0.05,0-0.103-0.005-0.153-0.007   c-0.052,0-0.101-0.003-0.15-0.003c-0.19-0.004-0.375-0.004-0.552,0.001c-0.18,0.004-0.356,0.012-0.525,0.023   c-0.169,0.014-0.335,0.031-0.497,0.05c-0.16,0.024-0.315,0.048-0.467,0.077c-0.751,0.143-1.383,0.384-1.881,0.709   c-0.501,0.331-0.871,0.745-1.094,1.233c-0.226,0.491-0.301,1.06-0.217,1.689c0.085,0.636,0.333,1.333,0.757,2.077   c0.046,0.081,0.092,0.163,0.143,0.246c0.049,0.081,0.104,0.164,0.158,0.247c0.054,0.085,0.109,0.166,0.168,0.252   c0.06,0.084,0.12,0.171,0.184,0.255c0.053,0.071,0.105,0.14,0.16,0.21c0.053,0.07,0.109,0.14,0.166,0.209   c0.056,0.072,0.114,0.142,0.174,0.212c0.059,0.072,0.116,0.137,0.179,0.209c0.333,0.379,0.696,0.755,1.087,1.122   c0.392,0.368,0.813,0.731,1.254,1.082c0.444,0.353,0.909,0.696,1.395,1.027c0.484,0.331,0.989,0.646,1.507,0.951   c0.225,0.132,0.45,0.258,0.677,0.386c0.228,0.127,0.459,0.248,0.693,0.366c0.23,0.118,0.465,0.235,0.701,0.348   c0.236,0.113,0.475,0.222,0.711,0.328c0.657,0.292,1.322,0.555,1.988,0.789c0.666,0.235,1.329,0.436,1.987,0.604   c0.657,0.169,1.306,0.302,1.938,0.396c0.633,0.096,1.248,0.151,1.843,0.168c1.395,0.036,2.529-0.157,3.39-0.536   c0.848-0.376,1.425-0.929,1.716-1.62c0.287-0.68,0.298-1.493,0.016-2.394c-0.277-0.892-0.839-1.873-1.699-2.899   c-0.852-1.017-1.917-1.993-3.112-2.884c-1.188-0.888-2.516-1.698-3.896-2.394c-1.379-0.693-2.82-1.276-4.245-1.708   C84.167,38.939,82.748,38.655,81.414,38.567"/><path fill="{{COLOR}}" d="M42.415,31.73c-1.224-0.097-2.489-0.345-3.729-0.714c-1.243-0.37-2.452-0.857-3.563-1.426   c-1.107-0.571-2.108-1.222-2.937-1.919c-0.825-0.689-1.475-1.424-1.888-2.165c-0.411-0.734-0.545-1.406-0.442-1.986   c0.104-0.58,0.439-1.072,0.973-1.456c0.527-0.381,1.252-0.657,2.139-0.806c0.878-0.149,1.918-0.173,3.088-0.053   c1.164,0.12,2.352,0.374,3.506,0.725c1.153,0.353,2.278,0.809,3.312,1.334c1.039,0.525,1.99,1.123,2.798,1.768   c0.811,0.648,1.478,1.34,1.939,2.05c0.466,0.716,0.677,1.382,0.661,1.974c-0.018,0.602-0.266,1.126-0.723,1.552   c-0.462,0.431-1.137,0.756-1.996,0.954C44.688,31.76,43.631,31.824,42.415,31.73 M35.14,19.688   c-1.525-0.162-2.882-0.137-4.034,0.047c-1.165,0.188-2.121,0.539-2.826,1.027c-0.714,0.496-1.172,1.132-1.322,1.885   c-0.153,0.761,0.005,1.64,0.529,2.605c0.213,0.391,0.478,0.784,0.79,1.172c0.312,0.391,0.671,0.775,1.072,1.154   c0.402,0.379,0.843,0.75,1.322,1.113c0.479,0.359,0.991,0.712,1.535,1.045c0.207,0.13,0.418,0.255,0.633,0.379   c0.215,0.123,0.432,0.243,0.654,0.365c0.224,0.118,0.449,0.233,0.679,0.347c0.229,0.113,0.46,0.225,0.694,0.333   c0.675,0.31,1.372,0.596,2.082,0.856c0.712,0.258,1.435,0.487,2.167,0.686c0.728,0.197,1.461,0.363,2.191,0.495   c0.727,0.127,1.451,0.219,2.161,0.272c0.039,0.004,0.074,0.005,0.109,0.007c0.039,0.003,0.074,0.007,0.111,0.007   c0.037,0.004,0.072,0.005,0.107,0.009c0.037,0.001,0.074,0.002,0.109,0.005c0.231,0.011,0.455,0.018,0.677,0.021   c0.22,0.002,0.438,0,0.647-0.005c0.211-0.007,0.416-0.016,0.617-0.032c0.199-0.013,0.393-0.034,0.583-0.056   c0.971-0.117,1.807-0.339,2.487-0.652c0.677-0.31,1.202-0.706,1.564-1.175c0.359-0.467,0.555-1.001,0.581-1.591   c0.023-0.586-0.121-1.224-0.451-1.905c-0.031-0.065-0.063-0.129-0.099-0.194c-0.033-0.065-0.07-0.13-0.107-0.196   c-0.039-0.067-0.079-0.132-0.12-0.198c-0.039-0.068-0.083-0.135-0.129-0.2c-0.042-0.066-0.09-0.135-0.136-0.203   c-0.049-0.065-0.097-0.132-0.146-0.199c-0.05-0.065-0.101-0.132-0.154-0.197c-0.051-0.067-0.105-0.132-0.16-0.198   c-0.702-0.84-1.609-1.648-2.662-2.401c-1.045-0.744-2.235-1.436-3.512-2.042c-1.271-0.604-2.634-1.126-4.023-1.535   C37.969,20.132,36.541,19.836,35.14,19.688"/><path fill="{{COLOR}}" d="M74.008,34.202c-1.035-0.081-2.141-0.305-3.251-0.645c-1.108-0.335-2.218-0.783-3.263-1.311   c-1.042-0.527-2.014-1.13-2.853-1.777c-0.836-0.643-1.537-1.328-2.043-2.02c-0.501-0.689-0.762-1.32-0.803-1.871   c-0.046-0.546,0.125-1.015,0.483-1.384c0.356-0.367,0.894-0.633,1.597-0.783c0.698-0.15,1.562-0.183,2.563-0.079   c0.996,0.101,2.043,0.331,3.085,0.654c1.039,0.323,2.075,0.743,3.054,1.232c0.98,0.49,1.905,1.051,2.718,1.652   c0.816,0.604,1.521,1.253,2.058,1.919c0.541,0.671,0.858,1.298,0.97,1.858c0.114,0.564,0.016,1.061-0.275,1.461   c-0.292,0.409-0.786,0.721-1.461,0.911C75.906,34.212,75.041,34.283,74.008,34.202 M65.342,22.903   c-1.212-0.129-2.266-0.106-3.147,0.043c-0.885,0.156-1.594,0.444-2.1,0.845c-0.511,0.405-0.814,0.924-0.889,1.539   c-0.072,0.622,0.094,1.341,0.524,2.133c0.033,0.063,0.068,0.125,0.105,0.188s0.076,0.127,0.114,0.19   c0.041,0.063,0.083,0.128,0.129,0.196c0.042,0.062,0.088,0.129,0.134,0.194c0.05,0.067,0.096,0.134,0.146,0.198   c0.05,0.065,0.099,0.129,0.153,0.195c0.05,0.065,0.105,0.131,0.16,0.196c0.055,0.066,0.113,0.132,0.168,0.197   c0.27,0.308,0.569,0.611,0.89,0.91c0.325,0.302,0.672,0.597,1.041,0.889c0.368,0.291,0.76,0.573,1.167,0.851   c0.408,0.278,0.837,0.546,1.276,0.806c0.199,0.118,0.403,0.233,0.609,0.347s0.414,0.225,0.624,0.334   c0.212,0.108,0.427,0.213,0.64,0.317c0.216,0.104,0.435,0.207,0.651,0.305c0.618,0.28,1.248,0.536,1.884,0.767   c0.637,0.231,1.276,0.438,1.911,0.612c0.639,0.175,1.273,0.321,1.894,0.436c0.622,0.113,1.234,0.192,1.828,0.237   c0.053,0.002,0.105,0.007,0.16,0.011c0.053,0.001,0.106,0.007,0.159,0.008c0.051,0.003,0.104,0.004,0.155,0.008   c0.051,0.003,0.104,0.003,0.153,0.005c0.19,0.005,0.377,0.007,0.557,0.004c0.18-0.002,0.356-0.011,0.525-0.02   c0.167-0.011,0.333-0.026,0.492-0.046c0.16-0.018,0.313-0.04,0.462-0.064c0.814-0.146,1.47-0.399,1.956-0.747   c0.485-0.345,0.803-0.779,0.941-1.286c0.142-0.503,0.109-1.078-0.105-1.706c-0.213-0.62-0.606-1.294-1.183-2.004   c-0.709-0.868-1.631-1.71-2.697-2.496c-1.058-0.779-2.257-1.504-3.527-2.137c-1.268-0.632-2.611-1.177-3.958-1.597   C67.998,23.337,66.639,23.04,65.342,22.903"/></g></svg>