<svg width="100" height="100" xmlns="http://www.w3.org/2000/svg" version="1.1" fill="{{COLOR}}">

 <g>
  <title>Layer 1</title>
  <g id="svg_1">
   <path id="svg_2" overflow="visible" display="inline" visibility="visible" marker="none" fill-rule="evenodd" fill="{{COLOR}}" d="m13.54079,60.80582c-4.16126,0 -7.54087,3.3922 -7.54087,7.5693c0,4.1771 3.37961,7.605 7.54087,7.605c0.81354,0 1.61398,-0.1361 2.38323,-0.3928c12.2811,18.8997 36.64984,23.2608 54.49322,13.032c0.52122,-0.2991 0.72461,-1.0475 0.42662,-1.571c-0.29799,-0.5234 -1.04351,-0.7275 -1.56508,-0.4284c-16.77295,9.6153 -39.67122,5.6292 -51.32728,-12.1037c1.89425,-1.3812 3.13016,-3.6195 3.13016,-6.1411c0,-4.1771 -3.37926,-7.5693 -7.54087,-7.5693z"/>
   <path id="svg_3" overflow="visible" display="inline" visibility="visible" marker="none" fill-rule="evenodd" fill="{{COLOR}}" d="m70.41724,18.21081c-0.95102,0.12132 -1.23732,1.69026 -0.39118,2.14225c13.42985,8.21899 20.92855,24.30182 17.64248,40.55986c-0.39295,-0.067 -0.80185,-0.107 -1.20933,-0.107c-4.16126,0 -7.54086,3.3922 -7.54086,7.5692c0,4.1771 3.3796,7.605 7.54086,7.605c4.16126,0 7.54087,-3.4279 7.54087,-7.605c0,-2.9516 -1.68697,-5.51 -4.16162,-6.748c3.60744,-17.29107 -4.33133,-34.48188 -18.6385,-43.23773c-0.18992,-0.12122 -0.41598,-0.18423 -0.64063,-0.17852c-0.04784,-0.003 -0.09425,-0.003 -0.14209,0l0,-0.00006z"/>
   <path id="svg_4" overflow="visible" display="inline" visibility="visible" marker="none" fill-rule="evenodd" fill="{{COLOR}}" d="m50,6c-4.01244,0 -7.27441,3.16987 -7.50508,7.14083c-17.19708,3.19362 -29.72764,16.85266 -32.58212,33.06201a1.13835,1.14265 0 1 0 2.24078,0.39275c2.68122,-15.22486 14.38831,-28.07084 30.51886,-31.1697c0.82665,3.28539 3.80268,5.71266 7.32756,5.71266c4.16126,0 7.54087,-3.39219 7.54087,-7.56928c0,-4.17708 -3.37961,-7.56927 -7.54087,-7.56927z"/>
  </g>
 </g>
</svg>